# xmcd
#
# Track frame offsets: 
#        150
#        17020
#        33911
#        59435
#        82541
#        101159
#        117313
#        134103
#        153385
#        171971
#        190406
#        212256
#        230842
#
# Disc length: 3322 seconds
#
# Revision: 1
# Processed by: cddbd v1.5.1PL0 Copyright (c) Steve Scherf et al.
# Submitted via: ExactAudioCopy v0.95b1
#
DISCID=ad0cf80d
DTITLE=Willy DeVille - Loup Garou
DYEAR=1995
DGENRE=Blues
TTITLE0=No Such Pain As Love
TTITLE1=Runnin' Through The Jungle (Shootin' The Blues)
TTITLE2=When You're Away from Me
TTITLE3=Angels Don't Lie
TTITLE4=Still (I Love You Still)
TTITLE5=White Trash Girl
TTITLE6=You'll Never Know
TTITLE7=Ballad Of The Hoodlum Priest
TTITLE8=Heart Of A Fool
TTITLE9=Asi Te Amo
TTITLE10=Lomp Garon "Bal Goula"
TTITLE11=Time Has Come Today
TTITLE12=My One Desire (Vampir's Lullaby)
EXTD=YEAR: 1995
EXTT0=
EXTT1=
EXTT2=
EXTT3=
EXTT4=
EXTT5=
EXTT6=
EXTT7=
EXTT8=
EXTT9=
EXTT10=
EXTT11=
EXTT12=
PLAYORDER=
